<svg width="137" height="171" viewBox="0 0 137 171" fill="none" xmlns="http://www.w3.org/2000/svg">
<path opacity="0.5" d="M0.292893 162.293C-0.0976311 162.683 -0.0976311 163.317 0.292893 163.707L6.65685 170.071C7.04738 170.462 7.68054 170.462 8.07107 170.071C8.46159 169.681 8.46159 169.047 8.07107 168.657L2.41421 163L8.07107 157.343C8.46159 156.953 8.46159 156.319 8.07107 155.929C7.68054 155.538 7.04738 155.538 6.65685 155.929L0.292893 162.293ZM1 2H55V0H1V2ZM55 162H1V164H55V162ZM135 82C135 126.183 99.1828 162 55 162V164C100.287 164 137 127.287 137 82H135ZM55 2C99.1828 2 135 37.8172 135 82H137C137 36.7127 100.287 0 55 0V2Z" fill="#DF0202"/>
</svg>
