<svg width="146" height="18" viewBox="0 0 146 18" fill="none" xmlns="http://www.w3.org/2000/svg">
<path d="M10.854 1.184V3.488H4.032V6.278H10.296V8.492H4.032V11.642H10.98V14H1.242V1.184H10.854ZM23.6419 1.184V3.578H17.5219V14H14.7139V1.184H23.6419ZM26.8678 1.184H32.3938C33.8338 1.184 34.9738 1.532 35.8138 2.228C36.6658 2.912 37.0918 3.938 37.0918 5.306C37.0918 6.65 36.6718 7.67 35.8318 8.366C34.9918 9.05 33.8938 9.392 32.5378 9.392H29.6578V14H26.8678V1.184ZM29.6578 3.488V7.178H32.1598C33.6238 7.178 34.3558 6.566 34.3558 5.342C34.3558 4.106 33.6298 3.488 32.1778 3.488H29.6578ZM51.5097 1.184V14H48.7017V8.474H43.4637V14H40.6557V1.184H43.4637V6.008H48.7017V1.184H51.5097Z" fill="black"/>
<path d="M84.038 0.877999C85.91 0.877999 87.422 1.502 88.574 2.75C89.738 3.986 90.32 5.606 90.32 7.61C90.32 9.614 89.738 11.234 88.574 12.47C87.422 13.694 85.904 14.306 84.02 14.306C82.124 14.306 80.594 13.694 79.43 12.47C78.266 11.234 77.684 9.614 77.684 7.61C77.684 5.582 78.26 3.956 79.412 2.732C80.576 1.496 82.118 0.877999 84.038 0.877999ZM84.002 3.182C82.946 3.182 82.1 3.578 81.464 4.37C80.84 5.162 80.528 6.224 80.528 7.556C80.528 8.936 80.84 10.016 81.464 10.796C82.088 11.576 82.946 11.972 84.038 11.984C85.106 11.984 85.946 11.588 86.558 10.796C87.17 10.004 87.476 8.924 87.476 7.556C87.476 6.212 87.164 5.15 86.54 4.37C85.916 3.578 85.07 3.182 84.002 3.182ZM92.2518 14V1.184H95.1138L100.388 9.77V1.184H103.088V14H100.28L94.9698 5.396V14H92.2518ZM114.666 11.588V14H105.594V1.184H108.402V11.588H114.666ZM119.089 1.184V14H116.263V1.184H119.089ZM121.572 14V1.184H124.434L129.708 9.77V1.184H132.408V14H129.6L124.29 5.396V14H121.572ZM144.526 1.184V3.488H137.704V6.278H143.968V8.492H137.704V11.642H144.652V14H134.914V1.184H144.526Z" fill="#DF0202"/>
<path d="M65 3C63.6739 3 62.4021 3.52678 61.4645 4.46447C60.5268 5.40215 60 6.67392 60 8C60 9.32608 60.5268 10.5979 61.4645 11.5355C62.4021 12.4732 63.6739 13 65 13L65 8V3Z" fill="#DF0202"/>
<path d="M65 3C66.3261 3 67.5979 3.52678 68.5355 4.46447C69.4732 5.40215 70 6.67392 70 8C70 9.32608 69.4732 10.5979 68.5355 11.5355C67.5979 12.4732 66.3261 13 65 13L65 8V3Z" fill="black"/>
</svg>
